# xmcd
#
# Track frame offsets: 
#        150
#        23593
#        48065
#        68019
#        87688
#        109681
#        130503
#        137816
#        160117
#        179562
#        202597
#        227335
#        245401
#        267406
#        290682
#        327037
#
# Disc length: 4772 seconds
#
# Revision: 2
# Processed by: cddbd v1.5.1PL0 Copyright (c) Steve Scherf et al.
# Submitted via: ExactAudioCopy v0.95a5
#
DISCID=d212a210
DTITLE=George Duke - The Essential George Duke Disc 2
DYEAR=2004
DGENRE=R&B
TTITLE0=Shine On
TTITLE1=Ride On Love
TTITLE2=Son Of Reach For It
TTITLE3=Every Reason To Smile
TTITLE4=Heroes
TTITLE5=The Good Times
TTITLE6=Overture
TTITLE7=Reach Out
TTITLE8=Give Me Your Love
TTITLE9=Silly Fightin'
TTITLE10=Got To Get Back To Love
TTITLE11=She Can Wait Forever
TTITLE12=Secret Rendevous
TTITLE13=Mothership Connection
TTITLE14=Dukey Stick 12"
TTITLE15=Reach Out! 12"
EXTD=\n\n
EXTT0=
EXTT1=
EXTT2=
EXTT3=
EXTT4=
EXTT5=
EXTT6=
EXTT7=
EXTT8=
EXTT9=
EXTT10=
EXTT11=
EXTT12=
EXTT13=
EXTT14=
EXTT15=
PLAYORDER=
